#!OML:ASF X:\für Bonn\!DataBase\2005_08_12_Daniel\c3d\Daniel.ASF
:FULLY-SPECIFIED
:DEGREES
158
root 12.8735 4.37418 -1.08965 -1619.03 235.035 135.623
lowerback 75.7736 -0.531234 8.4418
upperback 14.9333 0.17858 -8.47721
thorax -3.92396 -0.148695 -13.3229
lowerneck 11.4307 7.65394 -3.43344
upperneck 7.35668 9.45767 -7.25407
head 0.643241 4.47027 -1.97303
rclavicle 1.59028e-014 3.65764e-014
rhumerus -387.123 37.1783 302.325
rradius 53.4944
rwrist 8.50353
rhand -21.562 746.927
rfingers 7.12502
rthumb 4.83174 717.002
lclavicle 1.59028e-014 3.65764e-014
lhumerus -543.105 157.124 -476.982
lradius 34.3381
lwrist -29.7685
lhand -65.6149 -762.934
lfingers 7.12502
lthumb -37.4791 -16.9953
rfemur -654.641 -139.468 606.573
rtibia 138.949
rfoot -1.39192 14.2672
rtoes 23.4094
lfemur 33.2792 -31.4849 129.676
ltibia 163.083
lfoot -86.5232 -18.2894
ltoes 29.2415
159
root 13.1108 4.40654 -1.04329 -1618.74 236.077 134.979
lowerback 75.4747 -0.694648 8.82342
upperback 15.0062 0.224469 -8.5534
thorax -3.84561 -0.109884 -13.5906
lowerneck 11.5462 7.64864 -4.0653
upperneck 7.26863 9.35801 -7.09176
head 0.558158 4.41058 -1.82219
rclavicle -1.90833e-014 1.76521e-013
rhumerus -388.597 38.068 301.219
rradius 52.9178
rwrist 10.239
rhand -22.265 746.57
rfingers 7.12502
rthumb 4.1529 716.631
lclavicle -1.90833e-014 1.76521e-013
lhumerus -543.241 157.349 -476.214
lradius 33.9251
lwrist -29.6631
lhand -65.834 -763.298
lfingers 7.12502
lthumb -37.6861 -17.4145
rfemur -653.839 -138.64 606.196
rtibia 137.297
rfoot 0.223141 14.0251
rtoes 22.9201
lfemur 39.9448 -27.4796 127.853
ltibia 162.067
lfoot -81.0208 -23.4025
ltoes 29.8093
160
root 13.369 4.44569 -0.995864 -1618.49 237.117 134.357
lowerback 75.2577 -0.841762 9.15154
upperback 15.065 0.249334 -8.61548
thorax -3.7798 -0.0865671 -13.811
lowerneck 11.3997 7.6614 -4.6612
upperneck 7.32518 9.31838 -6.94891
head 0.566318 4.37068 -1.6718
rclavicle -2.54444e-014 1.43125e-014
rhumerus -390.132 38.9689 300.029
rradius 52.4491
rwrist 12.2012
rhand -22.9355 746.311
rfingers 7.12502
rthumb 3.50537 716.36
lclavicle -2.54444e-014 1.43125e-014
lhumerus -543.365 157.482 -475.439
lradius 33.4635
lwrist -29.6358
lhand -66.0642 -763.64
lfingers 7.12502
lthumb -37.9036 -17.8148
rfemur -652.824 -137.802 605.761
rtibia 135.416
rfoot 1.9952 13.8716
rtoes 22.4247
lfemur 46.5674 -22.1499 126.038
ltibia 160.855
lfoot -75.0434 -29.0608
ltoes 30.2476
161
root 13.6186 4.46796 -0.943971 -1618.2 238.152 133.67
lowerback 75.1196 -1.00948 9.51257
upperback 15.0872 0.276751 -8.69748
thorax -3.74552 -0.0590749 -14.0719
lowerneck 11.1052 7.6578 -5.14611
upperneck 7.475 9.29304 -6.77397
head 0.631392 4.33409 -1.52247
rclavicle -3.18055e-014 4.29375e-014
rhumerus -391.84 39.827 298.596
rradius 52.0212
rwrist 14.2116
rhand -23.6837 746.139
rfingers 7.12502
rthumb 2.78283 716.177
lclavicle -3.18055e-014 4.29375e-014
lhumerus -543.524 157.778 -474.735
lradius 33.0478
lwrist -29.5063
lhand -66.3214 -764.011
lfingers 7.12502
lthumb -38.1465 -18.2521
rfemur -652.018 -137.03 605.557
rtibia 133.595
rfoot 3.74738 13.6911
rtoes 21.7519
lfemur 52.2901 -16.304 124.434
ltibia 159.617
lfoot -69.0427 -34.4609
ltoes 30.4882
162
root 13.8661 4.4787 -0.888783 -1617.98 239.169 133.028
lowerback 75.0588 -1.18925 9.8417
upperback 15.0937 0.272038 -8.77695
thorax -3.72905 -0.0493439 -14.3035
lowerneck 10.6658 7.66113 -5.58405
upperneck 7.73706 9.30621 -6.61043
head 0.758049 4.30945 -1.37846
rclavicle -3.81667e-014 1.59028e-014
rhumerus -393.593 40.732 297.05
rradius 51.6477
rwrist 16.1537
rhand -24.4031 746.165
rfingers 7.12502
rthumb 2.08804 716.195
lclavicle -3.81667e-014 1.59028e-014
lhumerus -543.72 158.104 -474.047
lradius 32.6705
lwrist -29.329
lhand -66.5817 -764.12
lfingers 7.12502
lthumb -38.3922 -18.4284
rfemur -651.3 -136.27 605.438
rtibia 131.794
rfoot 5.46372 13.4749
rtoes 21.2634
lfemur 57.3106 -9.67922 122.942
ltibia 158.323
lfoot -62.5241 -39.7671
ltoes 30.5354
163
root 14.0981 4.47009 -0.829453 -1617.76 240.179 132.339
lowerback 75.0422 -1.36742 10.167
upperback 15.101 0.270786 -8.82712
thorax -3.70326 -0.0419441 -14.4989
lowerneck 10.2114 7.66062 -5.98517
upperneck 7.97838 9.32458 -6.51611
head 0.885097 4.2888 -1.26342
rclavicle -7.31528e-014 1.57437e-013
rhumerus -395.398 41.63 295.41
rradius 51.2737
rwrist 17.9874
rhand -25.1684 746.326
rfingers 7.12502
rthumb 1.34888 716.351
lclavicle -7.31528e-014 1.57437e-013
lhumerus -543.962 158.468 -473.351
lradius 32.3727
lwrist -29.0557
lhand -66.8102 -764.183
lfingers 7.12502
lthumb -38.6078 -18.5517
rfemur -650.369 -136.106 604.97
rtibia 130.145
rfoot 6.87535 12.7502
rtoes 20.8614
lfemur 61.4765 -2.85698 121.67
ltibia 157.058
lfoot -55.4896 -44.5786
ltoes 30.3395
164
root 14.2824 4.42591 -0.764033 -1617.54 241.175 131.649
lowerback 75.0585 -1.55833 10.4886
upperback 15.0971 0.25257 -8.9011
thorax -3.69206 -0.039998 -14.7155
lowerneck 9.75677 7.63649 -6.23422
upperneck 8.23149 9.33321 -6.45641
head 1.02382 4.2665 -1.18349
rclavicle 2.8625e-014 -8.5875e-014
rhumerus -397.322 42.5235 293.597
rradius 50.9741
rwrist 19.6511
rhand -25.8968 746.64
rfingers 7.12502
rthumb 0.645407 716.661
lclavicle 2.8625e-014 -8.5875e-014
lhumerus -544.292 159.088 -472.78
lradius 32.2077
lwrist -28.5491
lhand -67.0712 -764.086
lfingers 7.12502
lthumb -38.854 -18.5243
rfemur -649.645 -136.303 604.472
rtibia 128.924
rfoot 7.91518 11.5503
rtoes 20.8502
lfemur 64.5683 1.96387 120.806
ltibia 156.03
lfoot -49.284 -47.7771
ltoes 29.8347
